<svg width="30" height="27" xmlns="http://www.w3.org/2000/svg"><path d="m13 0 6 7v3h7.993A2.996 2.996 0 0 1 30 12.999V20a3.003 3.003 0 0 1-3.007 3H19v2.01c0 1.092-.894 1.99-1.997 1.99H1.997A2 2 0 0 1 0 24.993V2.007C0 .898.897 0 2.003 0H13Zm-1 1H1.996C1.446 1 1 1.455 1 1.995v23.01c0 .55.455.995 1 .995h15c.552 0 1-.445 1-.993V23h-7.993A2.996 2.996 0 0 1 7 20.001V13a3.003 3.003 0 0 1 3.007-3H18V8h-4.002A1.995 1.995 0 0 1 12 5.994V1Zm1 .5v4.491c0 .557.45 1.009.997 1.009H17.7L13 1.5ZM9.995 11C8.893 11 8 11.9 8 12.992v7.016A2 2 0 0 0 9.995 22h17.01C28.107 22 29 21.1 29 20.008v-7.016A2 2 0 0 0 27.005 11H9.995Zm12.25 2c1.111 0 2.005.898 2.005 2.006v2.988c0 1.12-.898 2.006-2.005 2.006H19.25v-7Zm.006 1H20.25v5h2.001a.997.997 0 0 0 .999-1v-3c0-.552-.443-1-.999-1Zm-9.001-1h.5l1.5 3 1.5-3h1v7h-1v-5l-1 2h-1l-1-2v5h-1v-7h.5Z" fill="#3B82F6"/></svg>
